<?xml version="1.0" standalone="no"?>
<!DOCTYPE svg PUBLIC "-//W3C//DTD SVG 20010904//EN"
 "http://www.w3.org/TR/2001/REC-SVG-20010904/DTD/svg10.dtd">
<svg version="1.0" xmlns="http://www.w3.org/2000/svg"
 width="126.000000pt" height="126.000000pt" viewBox="0 0 126.000000 126.000000"
 preserveAspectRatio="xMidYMid meet">
<metadata>
Created by potrace 1.11, written by Peter Selinger 2001-2013
</metadata>
<g transform="translate(0.000000,126.000000) scale(0.100000,-0.100000)"
fill="#000000" stroke="none">
<path d="M601 1046 c-7 -8 -13 -27 -14 -42 l-2 -29 -97 0 c-60 -1 -101 -5
-111 -13 -12 -11 -15 -58 -14 -307 0 -239 -2 -297 -14 -311 -8 -10 -9 -15 -3
-11 7 4 14 -7 18 -32 5 -33 9 -38 26 -34 11 3 20 1 20 -5 0 -18 29 -22 45 -6
8 9 15 11 15 6 0 -6 7 -12 14 -15 11 -4 13 -1 10 11 -5 13 -4 14 4 4 5 -8 12
-13 16 -13 30 4 45 -1 40 -13 -7 -19 8 -27 26 -14 12 8 11 9 -3 4 -12 -4 -17
-2 -14 6 2 7 14 12 26 11 14 -2 20 1 15 8 -5 8 -1 8 14 0 24 -13 33 -14 30 -3
-3 7 5 12 18 12 4 0 -1 -12 -11 -26 l-17 -27 25 19 c14 11 23 22 21 26 -2 4 1
10 7 14 7 4 9 3 6 -3 -4 -6 0 -14 8 -17 9 -3 18 1 22 10 5 13 7 13 14 2 7 -10
9 -10 9 -1 0 17 29 12 60 -10 24 -17 26 -17 42 3 9 11 23 20 31 20 19 0 39
-24 29 -35 -4 -5 -1 -5 6 -1 10 6 10 11 2 22 -9 10 -7 21 11 45 13 18 18 29
12 26 -7 -5 -12 0 -12 10 -4 601 -4 613 -18 625 -9 7 -54 13 -111 14 -122 2
-115 1 -109 23 12 47 -62 84 -92 47z m-151 -782 c0 -8 -19 -13 -24 -6 -3 5 1
9 9 9 8 0 15 -2 15 -3z m130 0 c0 -8 -19 -13 -24 -6 -3 5 1 9 9 9 8 0 15 -2
15 -3z m270 -3 c0 -13 -12 -20 -26 -14 -20 8 -17 19 6 20 11 1 20 -2 20 -6z"/>
<path d="M253 310 c-1 -11 2 -22 6 -24 4 -3 7 4 6 14 -2 27 -10 33 -12 10z"/>
<path d="M315 300 c3 -5 11 -10 16 -10 6 0 7 5 4 10 -3 6 -11 10 -16 10 -6 0
-7 -4 -4 -10z"/>
<path d="M944 298 c-5 -7 -2 -9 8 -5 9 3 22 0 29 -6 11 -10 11 -9 0 6 -16 20
-27 22 -37 5z"/>
<path d="M295 280 c-3 -5 -1 -10 4 -10 6 0 11 5 11 10 0 6 -2 10 -4 10 -3 0
-8 -4 -11 -10z"/>
<path d="M344 279 c-3 -6 -2 -15 3 -20 5 -5 9 -1 9 11 0 23 -2 24 -12 9z"/>
<path d="M1016 278 c3 -5 10 -6 15 -3 13 9 11 12 -6 12 -8 0 -12 -4 -9 -9z"/>
<path d="M959 253 c-13 -16 -12 -17 4 -4 16 13 21 21 13 21 -2 0 -10 -8 -17
-17z"/>
<path d="M754 248 c-3 -5 -10 -6 -15 -3 -5 4 -9 1 -9 -4 0 -6 10 -9 23 -7 12
3 25 5 30 5 4 1 7 5 7 9 0 11 -29 11 -36 0z"/>
<path d="M410 236 c0 -2 8 -10 18 -17 15 -13 16 -12 3 4 -13 16 -21 21 -21 13z"/>
</g>
</svg>
